<?xml version="1.0" encoding="utf-8" standalone="no"?>
<!DOCTYPE svg PUBLIC "-//W3C//DTD SVG 1.1//EN" "http://www.w3.org/Graphics/SVG/1.1/DTD/svg11.dtd">
<svg version="1.1" width="792pt" height="612pt" viewBox="0 0 792 612" overflow="visible" xmlns="http://www.w3.org/2000/svg">
  <path d="M354.8774,191.1664 C339.1309,182.203 324.7736,166.2488 317.1578,147.549 C309.542,128.8492 308.6676,107.4039 313.6714,89.98964 C318.1843,72.44179 329.8076,54.3983 345.8506,42.13846 C361.8936,29.87863 382.3565,23.40245 400.4736,23.6568 C418.5907,23.40245 439.0535,29.87863 455.0965,42.13846 C471.1396,54.3983 482.7628,72.44179 487.2757,89.98964 C492.2795,107.4039 491.4051,128.8492 483.7893,147.549 C476.1735,166.2488 461.8163,182.203 446.0698,191.1664 L446.0698,330.1261 L566.4124,399.606 C582.0482,390.4508 603.0435,385.9941 623.0459,388.7486 C643.0483,391.503 662.0577,401.4684 674.637,414.5089 C687.5775,427.1912 697.392,446.2789 699.9877,466.3025 C702.5836,486.3261 697.9607,507.2855 688.6819,522.8482 C679.8436,538.6653 664.0037,553.1485 645.3648,560.9122 C626.726,568.676 605.2882,569.7203 587.8348,564.8547 C570.2518,560.481 552.1168,549.001 539.7302,533.0557 C527.3436,517.1103 520.7054,496.6994 520.8162,478.5809 L400.4736,409.101 L280.1309,478.5809 C280.2417,496.6994 273.6035,517.1103 261.2169,533.0557 C248.8304,549.001 230.6953,560.481 213.1123,564.8547 C195.6589,569.7203 174.2212,568.676 155.5823,560.9122 C136.9435,553.1485 121.1035,538.6653 112.2653,522.8482 C102.9864,507.2855 98.36356,486.3261 100.9594,466.3025 C103.5552,446.2789 113.3697,427.1912 126.3101,414.5089 C138.8894,401.4684 157.8988,391.503 177.9012,388.7486 C197.9036,385.9941 218.899,390.4508 234.5347,399.606 L354.8774,330.1261 z" stroke="Black" stroke-width="0" fill="#000000" fill-opacity="1" />
</svg>